<svg xmlns="http://www.w3.org/2000/svg" width="24" height="24" viewBox="0 0 24 24" fill="none" stroke="#2d7d6f" stroke-width="2" stroke-linecap="round" stroke-linejoin="round"><path d="M12 22V12"/><path d="M3.22 8.36C1.33 5.85.86 3.07 2.05 2.05c1.02-1.02 3.8-.55 6.31 1.34C10.31 5 11.5 6.8 12 9c.5-2.2 1.69-4 3.64-5.61C18.14 1.5 20.93.97 21.95 2c1.02 1.02.55 3.8-1.34 6.31C19 10.31 17.2 11.5 15 12c2.2.5 4 1.69 5.61 3.64 1.89 2.51 2.36 5.29 1.17 6.31-1.02 1.02-3.8.55-6.31-1.34C13.69 19 12.5 17.2 12 15c-.5 2.2-1.69 4-3.64 5.61-2.51 1.89-5.29 2.36-6.31 1.17-1.02-1.02-.55-3.8 1.34-6.31C5 13.69 6.8 12.5 9 12c-2.2-.5-4-1.69-5.78-3.64z"/></svg>
