<svg xmlns="http://www.w3.org/2000/svg" width="24" height="24" viewBox="0 0 24 24" fill="none" stroke="#2d7d6f" stroke-width="2" stroke-linecap="round" stroke-linejoin="round">
  <!-- Tree canopy in background -->
  <path d="M12 2c-2.5 0-4.5 1.5-5.5 3.5C4 6 3 7.5 3 9.5c0 2 1.5 3.5 3.5 3.5h11c2 0 3.5-1.5 3.5-3.5 0-2-1-3.5-3.5-4C16.5 3.5 14.5 2 12 2z"/>
  <!-- Tree trunk -->
  <path d="M12 13v9"/>
  <!-- Community People overlapping trunk -->
  <circle cx="8" cy="16" r="2.5" fill="white"/>
  <path d="M3.5 22v-1.5a4.5 4.5 0 0 1 9 0V22" fill="white"/>
  <circle cx="16" cy="16" r="2.5" fill="white"/>
  <path d="M11.5 22v-1.5a4.5 4.5 0 0 1 9 0V22" fill="white"/>
</svg>
