<svg xmlns="http://www.w3.org/2000/svg" width="24" height="24" viewBox="0 0 24 24" fill="none" stroke="#2d7d6f" stroke-width="2" stroke-linecap="round" stroke-linejoin="round">
  <!-- Apple Body -->
  <path d="M12 21c-2.5 0-4-1.5-5.5-3C4 15 4 11 5 8.5 6.5 5 9 4 12 4c2.5 0 4.5 1 6 2.5"/>
  <path d="M19 16c1-2 1-4.5 0-7"/>
  <!-- Stem & Leaf -->
  <path d="M12 4V1"/>
  <path d="M12 2c2-1 4 0 4 2"/>
  <!-- Worm -->
  <path d="M18.5 12c1.5-1 3-1 4-2.5S21 6 21 6"/>
  <!-- Worm hole -->
  <ellipse cx="17.5" cy="13" rx="1.5" ry="2"/>
</svg>
